<?xml version="1.0" encoding="utf-8"?>
<!-- Generator: Adobe Illustrator 19.2.1, SVG Export Plug-In . SVG Version: 6.00 Build 0)  -->
<svg version="1.1" id="Layer_1" xmlns="http://www.w3.org/2000/svg" xmlns:xlink="http://www.w3.org/1999/xlink" x="0px" y="0px"
	 viewBox="0 0 127.8 125.2" style="enable-background:new 0 0 127.8 125.2;" xml:space="preserve">
<g>
	<g>
		<path d="M45.8,55.7c-4.9-4.8-13-5.1-19-2.4c-7.7,3.5-11.7,11.4-12.6,19.5c-0.9,8.8,1.8,17.5,7.1,24.5c5.5,7.3,15.7,13.1,17.4,22.7
			c0.5,2.8,5.3,1.6,4.9-0.9c-2.4-13.4-17.3-19.7-22.4-32c-2.9-7.1-3.4-15.7,0-22.7c3.4-7.1,14-12.3,20.5-5.8
			C43.7,60.4,47.8,57.7,45.8,55.7L45.8,55.7z"/>
	</g>
</g>
<g>
	<g>
		<path d="M6.4,100.9c-0.5,0.3-0.9,0.6-1.4,0.9c1.2,1,2.5,1.9,3.7,2.9c1.8-5.8,8.5-9,13.3-11.9c5.3-3.1,10.7-5.9,16.3-8.5
			c2.6-1.2-1-4.5-3-3.6c-6.7,3-13.2,6.4-19.4,10.4c-4.6,2.9-10,5.9-11.7,11.4c-0.5,1.8,2.1,4,3.7,2.9c0.5-0.3,0.9-0.6,1.4-0.9
			C11.8,102.9,8.3,99.7,6.4,100.9L6.4,100.9z"/>
	</g>
</g>
<g>
	<g>
		<path d="M55.5,64.4c0.3-0.8,0.5-1.6,0.8-2.4c-1.6-0.4-3.2-0.8-4.8-1.2c-4.2,9.3-7.2,19-8.7,29.1c-1,6.7-3.7,18.2,3.6,22.2
			c6.3,3.4,14.7,1.7,20.9-1c8.8-3.8,16.3-10.5,22.7-17.4c2-2.1-2.6-3.9-4.2-2.1c-5,5.4-10.6,10.4-17,14.1
			c-4.7,2.7-18.8,8.6-21.8,0.6c-1.2-3.1-0.1-8.4,0.3-11.7c0.4-4,1-8,1.9-11.9c1.6-7.1,4.1-14,7.1-20.7c1.1-2.5-3.7-3.4-4.8-1.2
			c-0.9,1.7-0.8,1.6-1,3.4C50.3,66.8,55.3,67,55.5,64.4L55.5,64.4z"/>
	</g>
</g>
<g>
	<g>
		<path d="M69.9,59.5c-1.8,6-1.7,12.6,3.2,17.1c3.7,3.5,9.2,5.1,14.2,4.4c9.6-1.2,15.6-9.1,14.6-18.6c-1.5,0.7-3,1.4-4.5,2.2
			c3.9,6.6,7.7,13.3,11.2,20.1c1.7,3.2,4,6.7,5,10.2c1.1,1.3,1.1,2.6-0.1,3.9c0,1.7-0.7,2.5-2.2,2.5c-1.4,0.7-3.8,0.9-5.3,1.3
			C93.1,106,81,111,69.5,117.5c-3,1.7,0.2,2.1,2,1.1c7.9-4.4,16.1-8.1,24.7-10.9c6.3-2.1,14.9-2.6,20.5-6.5
			c5.7-3.9,0.8-9.7-1.6-14.5c-4.1-8.3-8.6-16.4-13.3-24.3c-0.8-1.3-4.7,0.9-4.5,2.2c0.4,3.3,0,6.9-1.8,9.8c-3,4.9-9.8,4.6-14.3,2.4
			c-7.6-3.7-9-11.4-6.8-18.9C74.7,56.8,70.3,58,69.9,59.5L69.9,59.5z"/>
	</g>
</g>
<g>
	<g>
		<path d="M57.1,51c-1.2-0.1-4-3.5-4.8-4.4c-1.3-1.4-2.4-3-3.3-4.7c-1.9-3.7-2.7-7.9-2.2-12c0.9-7.7,6.1-14.3,12.3-18.7
			c1.7-1.2,3.7-2.6,5.7-3.2c3.4-0.9,5.4,0.8,7.2,3.3c2.1,2.8,2.9,6.3,2.7,9.8c-0.6,8.6-7.1,15.7-12.3,22c0,0,4.1,1.9,4.9,0.9
			c6.6-7.9,16.2-18.8,10.9-29.8c-4-8.5-14.3-9.9-21.7-5.5c-9,5.4-16.4,15.5-14.3,26.5c1.6,8.5,8.4,16.5,17.3,17.1
			C62.5,52.5,58.1,51.1,57.1,51L57.1,51z"/>
	</g>
</g>
<g>
	<g>
		<path d="M75.1,49.9c-2-2.1,0.8-8.2,1.7-10c1.7-3.4,4.3-6.3,7.3-8.6c6.1-4.6,14-6.9,21.6-6.8c5.2,0.1,9.1,1.9,6.6,7.7
			c-1.5,3.4-4.6,6.2-7.7,8.1C98,44.3,90,45.7,82.5,47.2c-3.2,0.6,0,3.6,2.2,3.1c10.5-2.1,23-4.3,30.1-13.2c2.4-3,4.6-7.6,2.8-11.4
			c-1.6-3.5-6.1-4.2-9.5-4.5c-9.8-0.8-20.3,1.9-28.1,8c-5.1,4-14.9,16.2-8.6,22.8C72.9,53.5,77.3,52.1,75.1,49.9L75.1,49.9z"/>
	</g>
</g>
</svg>
